<?xml version="1.0" encoding="UTF-8"?>
<!DOCTYPE svg PUBLIC "-//W3C//DTD SVG 1.1//EN" "http://www.w3.org/Graphics/SVG/1.1/DTD/svg11.dtd">
<!-- Creator: CorelDRAW 2018 (64-Bit) -->
<svg xmlns="http://www.w3.org/2000/svg" xml:space="preserve" width="250px" height="70px" version="1.1" style="shape-rendering:geometricPrecision; text-rendering:geometricPrecision; image-rendering:optimizeQuality; fill-rule:evenodd; clip-rule:evenodd"
viewBox="0 0 250 70"
 xmlns:xlink="http://www.w3.org/1999/xlink">
 <defs>
  <style type="text/css">
   <![CDATA[
    .fil0 {fill:#008DD2;fill-rule:nonzero}
   ]]>
  </style>
 </defs>
 <g id="Слой_x0020_1">
  <metadata id="CorelCorpID_0Corel-Layer"/>
  <g id="_2345534679104">
   <path class="fil0" d="M52.39 8.91l-0.2 0c-1.1,0 -2.02,0.92 -2.02,2.04l0 23.62c0,11.35 -3.13,18.92 -13.55,18.92 -10.5,0 -14.28,-7.57 -14.28,-18.92l0 -23.62c0,-1.12 -0.84,-2.04 -1.95,-2.04l-0.2 0c-1.1,0 -2.02,0.92 -2.02,2.04l0 23.62c0,13.65 4.82,22.83 18.45,22.83 13.55,0 17.79,-9.18 17.79,-22.83l0 -23.62c0,-1.12 -0.91,-2.04 -2.02,-2.04zm46.14 0c-0.91,0 -1.37,0.4 -1.63,0.59 0,0 -13.55,16.38 -14.59,17.62 -1.5,1.77 -1.44,2.03 -2.87,0.33 -0.92,-1.11 -14.86,-17.95 -14.86,-17.95 -0.26,-0.19 -0.65,-0.59 -1.63,-0.59 -1.11,0 -2.02,0.92 -2.02,2.04l0 43.58c0,1.12 0.91,2.03 2.02,2.03l0.19 0c1.11,0 2.02,-0.91 2.02,-2.03 0,0 0,-34.71 0,-36.22 0,-1.43 0.46,-1.63 1.24,-0.65 3.46,4.25 12.65,15.53 12.84,15.79 0.33,0.33 0.91,0.59 1.5,0.59 0.59,0 0.91,-0.13 1.5,-0.59 0.46,-0.39 9.58,-11.81 12.91,-15.92 0.71,-0.91 1.17,-0.91 1.17,0.78 0,1.77 0,36.22 0,36.22 0,1.12 0.91,2.03 2.02,2.03l0.19 0c1.11,0 2.02,-0.91 2.02,-2.03l0 -43.58c0,-1.12 -0.91,-2.04 -2.02,-2.04zm40.48 0l-0.2 0c-1.11,0 -2.02,0.93 -2.02,2.04l0 18.49c0,0.33 -0.26,0.66 -0.58,0.66l-24.32 0c-0.32,0 -0.58,-0.33 -0.58,-0.66l0 -18.49c0,-1.11 -0.91,-2.04 -2.02,-2.04l-0.2 0c-1.11,0 -2.02,0.93 -2.02,2.04l0 43.59c0,1.11 0.91,2.02 2.02,2.02l0.2 0c1.11,0 2.02,-0.91 2.02,-2.02l0 -19.62c0,-0.39 0.26,-0.65 0.58,-0.65l24.32 0c0.32,0 0.58,0.26 0.58,0.65l0 19.62c0,1.11 0.91,2.02 2.02,2.02l0.2 0c1.11,0 2.02,-0.91 2.02,-2.02l0 -43.59c0,-1.11 -0.91,-2.04 -2.02,-2.04zm22.48 47.65c9.06,0 16.43,-5.93 16.43,-14.99 0,-9.06 -7.37,-14.8 -16.43,-14.8l-8.93 0c-0.58,0 -0.78,-0.13 -0.78,-0.71l0 -15.11c0,-1.11 -0.91,-2.04 -2.02,-2.04l-0.19 0c-1.11,0 -2.02,0.93 -2.02,2.04l0 43.59c0,1.11 0.91,2.02 2.02,2.02l11.92 0zm0 -25.55c6.78,0 12.26,3.78 12.26,10.56 0,6.78 -5.48,10.82 -12.26,10.82l-8.93 0c-0.58,0 -0.78,-0.2 -0.78,-0.72l0 -19.88c0,-0.59 0.13,-0.78 0.72,-0.78l8.99 0zm22.75 -22.1l-0.13 0c-1.11,0 -2.02,0.93 -2.02,2.04l0 43.59c0,1.11 0.91,2.02 2.02,2.02l0.13 0c1.11,0 2.02,-0.91 2.02,-2.02l0 -43.59c0,-1.11 -0.91,-2.04 -2.02,-2.04z"/>
   <path class="fil0" d="M43.2 8.91l-0.2 0c-1.1,0 -2.02,0.92 -2.02,2.04l0 23.62c0,11.35 -3.13,18.92 -13.55,18.92 -10.5,0 -14.28,-7.57 -14.28,-18.92l0 -23.62c0,-1.12 -0.85,-2.04 -1.95,-2.04l-0.2 0c-1.11,0 -2.02,0.92 -2.02,2.04l0 23.62c0,13.65 4.82,22.83 18.45,22.83 13.55,0 17.79,-9.18 17.79,-22.83l0 -23.62c0,-1.12 -0.91,-2.04 -2.02,-2.04z"/>
   <path class="fil0" d="M226.51 8.91l-0.2 0c-1.11,0 -2.02,0.92 -2.02,2.04l0 23.62c0,11.35 -3.13,18.92 -13.56,18.92 -10.49,0 -14.27,-7.57 -14.27,-18.92l0 -23.62c0,-1.12 -0.85,-2.04 -1.96,-2.04l-0.19 0c-1.11,0 -2.02,0.92 -2.02,2.04l0 23.62c0,13.65 4.82,22.83 18.44,22.83 13.56,0 17.8,-9.18 17.8,-22.83l0 -23.62c0,-1.12 -0.92,-2.04 -2.02,-2.04z"/>
   <path class="fil0" d="M235.88 8.91l-0.19 0c-1.11,0 -2.02,0.92 -2.02,2.04l0 23.62c0,11.35 -3.13,18.92 -13.56,18.92 -10.49,0 -14.27,-7.57 -14.27,-18.92l0 -23.62c0,-1.12 -0.85,-2.04 -1.96,-2.04l-0.2 0c-1.1,0 -2.02,0.92 -2.02,2.04l0 23.62c0,13.65 4.83,22.83 18.45,22.83 13.56,0 17.79,-9.18 17.79,-22.83l0 -23.62c0,-1.12 -0.91,-2.04 -2.02,-2.04z"/>
   <path class="fil0" d="M32.23 61.38l-0.34 0c-1.86,0 -3.43,1.46 -3.43,3.37l0 0.29c0,1.92 1.57,3.49 3.43,3.49l0.34 0c1.8,0 3.37,-1.57 3.37,-3.49l0 -0.29c0,-1.91 -1.57,-3.37 -3.37,-3.37z"/>
   <path class="fil0" d="M215.82 1.77l-0.34 0c-1.86,0 -3.43,1.45 -3.43,3.37l0 0.29c0,1.92 1.57,3.48 3.43,3.48l0.34 0c1.8,0 3.37,-1.56 3.37,-3.48l0 -0.29c0,-1.92 -1.57,-3.37 -3.37,-3.37z"/>
  </g>
 </g>
</svg>
